<svg width="109" height="37" viewBox="0 0 109 37" fill="none" xmlns="http://www.w3.org/2000/svg">
<path fill-rule="evenodd" clip-rule="evenodd" d="M0.907532 36.021H7.78244V33.2796H3.9511V3.66393H7.78244V0.922363H0.907532V36.021ZM21.7838 10.7851C20.3543 10.7851 19.177 11.096 18.252 11.7176C17.4048 12.2811 16.6755 13.0169 16.1078 13.8809V4.10833H11.0048V31.5607H16.0356V29.005C16.7193 30 17.3552 30.6962 17.9433 31.0937C18.9268 31.7651 20.2284 32.1008 21.8482 32.1009C24.4274 32.1009 26.4369 31.0627 27.8767 28.9863C29.3165 26.9099 30.0364 24.2927 30.0364 21.1349C30.0364 18.0887 29.3065 15.6021 27.8468 13.675C26.387 11.748 24.3659 10.7844 21.7832 10.7844L21.7838 10.7851ZM20.4956 27.7189C18.967 27.7189 17.8298 27.147 17.0839 26.0031C16.338 24.8592 15.9649 23.417 15.9645 21.6764C15.9645 20.1975 16.1451 18.9915 16.5062 18.0583C17.2041 16.3053 18.4858 15.4288 20.3513 15.4288C22.1926 15.4288 23.4562 16.324 24.142 18.1144C24.5029 19.0593 24.6835 20.2529 24.6837 21.6951C24.6837 23.498 24.3166 24.9525 23.5823 26.0585C22.848 27.1644 21.8191 27.7177 20.4956 27.7182V27.7189ZM38.8276 3.90391H33.6532V8.80826H38.8276V3.90336V3.90391ZM33.6532 31.5614H38.8276V11.2327H33.6532V31.5608V31.5614ZM54.5759 10.7477C52.9714 10.7477 51.6461 11.158 50.6001 11.9786C50.0176 12.4388 49.3996 13.191 48.7459 14.2353V11.2699H43.8045V31.5608H48.9071V20.5575C48.9071 19.3018 49.073 18.2699 49.4047 17.4616C50.0446 15.9324 51.2238 15.1677 52.9423 15.1677C54.3402 15.1677 55.2881 15.6899 55.7859 16.7343C56.0584 17.3063 56.1946 18.1269 56.1946 19.1961V31.5608H61.4218V17.8719C61.4218 15.3233 60.7829 13.4988 59.5051 12.3983C58.2274 11.2978 56.5843 10.7478 54.5759 10.7483V10.7477ZM73.3636 10.7477C70.7971 10.7477 68.7471 11.7424 67.2136 13.7317C65.68 15.721 64.9134 18.4501 64.9136 21.919C64.9136 24.9278 65.6924 27.3927 67.25 29.3135C68.8076 31.2344 70.7261 32.1949 73.0054 32.195C74.3899 32.195 75.5477 31.9215 76.4788 31.3744C77.4098 30.8273 78.2393 29.9508 78.9674 28.7448V31.561H83.9265V4.10833H78.7522V13.8067C78.2015 12.8717 77.4313 12.0983 76.5141 11.5594C75.5501 11.0068 74.4639 10.7271 73.3637 10.7481L73.3636 10.7477ZM74.4736 27.7189C73.0292 27.7189 71.952 27.1563 71.2419 26.0311C70.5318 24.906 70.1765 23.4046 70.176 21.5272C70.176 19.7869 70.5251 18.3291 71.2234 17.154C71.9216 15.9788 73.0168 15.3913 74.5088 15.3916C75.4526 15.3786 76.3687 15.7232 77.0868 16.3612C78.2923 17.4308 78.8951 19.2088 78.8952 21.6951C78.8952 23.4733 78.5192 24.9217 77.7673 26.0401C77.0153 27.1586 75.9172 27.7181 74.4731 27.7185L74.4736 27.7189ZM99.1632 10.7477C97.6352 10.7477 96.3939 11.1643 95.4392 11.9973C94.8542 12.4947 94.1678 13.4209 93.38 14.7761V11.2327H88.5099V31.5608H93.6491V21.8442C93.6491 20.2154 93.8461 19.0094 94.24 18.2261C94.944 16.8337 96.3226 16.1375 98.376 16.1374C98.5308 16.1374 98.7337 16.1435 98.9846 16.1557C99.2354 16.1679 99.5219 16.1928 99.844 16.2303V10.7853C99.6172 10.7731 99.471 10.7638 99.4054 10.7573C99.3397 10.7512 99.2591 10.7479 99.1637 10.7479L99.1632 10.7477ZM101.293 36.021H108.168V0.922363H101.293V3.66393H105.106V33.2796H101.293V36.021Z" fill="black"/>
</svg>
