<svg xmlns="http://www.w3.org/2000/svg" width="700" height="300" viewBox="0 0 700 300">
  <defs>
    <style>
      .cls-1 {
        fill-rule: evenodd;
      }
    </style>
  </defs>
  <path id="black" class="cls-1" d="M44.929,245.569H83.991V230.616H62.222V69.076H83.991V54.122H44.929V245.569Zm118.615-137.65q-12.183,0-20.067,5.086a42.452,42.452,0,0,0-12.183,11.8V71.5H102.3v149.74h28.584V207.3q5.827,8.141,10.839,11.393,8.382,5.493,22.187,5.494,21.982,0,34.253-16.989t12.271-42.826q0-24.923-12.441-40.69t-34.452-15.767h0Zm-7.319,92.366q-13.028,0-19.385-9.359t-6.36-23.6q0-12.1,3.078-19.735,5.948-14.343,21.847-14.343,15.693,0,21.538,14.649,3.076,7.731,3.078,19.531,0,14.751-6.258,23.8t-17.538,9.053h0Zm104.159-129.9h-29.4V97.136h29.4V70.382Zm-29.4,150.859h29.4V110.36h-29.4V221.241ZM349.863,107.715q-13.675,0-22.59,6.714-4.964,3.765-10.535,12.309V110.563H288.662V221.241h28.992V161.223q0-10.274,2.827-16.887,5.454-12.512,20.1-12.512,11.914,0,16.157,8.545,2.322,4.68,2.322,13.428v67.444h29.7V146.574q0-20.852-10.89-29.856t-28.007-9h0Zm106.748,0q-21.873,0-34.943,16.276T408.6,168.649q0,24.618,13.275,40.334T454.576,224.7q11.8,0,19.735-4.476t14.14-14.343v15.361h28.177V71.5h-29.4v52.9a35.221,35.221,0,0,0-12.716-12.258,35.766,35.766,0,0,0-17.9-4.425h0Zm6.307,92.57q-12.31,0-18.362-9.206T438.5,166.512q0-14.239,5.951-23.854t18.667-9.613a22.12,22.12,0,0,1,14.648,5.289q10.274,8.751,10.275,29.094,0,14.549-6.409,23.7t-18.717,9.155h0ZM603.2,107.715q-13.023,0-21.159,6.816-4.986,4.069-11.7,15.157V110.36H542.67V221.241h29.2v-53q0-13.326,3.357-19.735,6-11.392,23.5-11.393,1.32,0,3.458.1t4.883,0.407v-29.7q-1.933-.1-2.492-0.153c-0.373-.033-0.831-0.051-1.373-0.051h0ZM615.3,245.569h39.062V54.122H615.3V69.076h21.667v161.54H615.3v14.953Z"/>
</svg>
